<svg xmlns="http://www.w3.org/2000/svg" direction="ltr" width="4081.713695801789" height="4110" viewBox="10361.59717129316 -969.7083439714297 4081.713695801789 4110" stroke-linecap="round" stroke-linejoin="round" data-color-mode="light" class="tl-container tl-theme__force-sRGB tl-theme__light" style="background-color: transparent;"><defs/><g transform="matrix(1, 0, 0, 1, 10361.5972, -969.7083)" opacity="1"><g data-lovart-layer-name="SVG 1"><g transform="scale(2.82863041982106, 2.8286304198210597)"><g>
<g xmlns="http://www.w3.org/2000/svg" stroke-width="2.00" fill="none" stroke-linecap="butt">
<path stroke="#65514f" d="M 1081.68 396.88   Q 1078.40 399.63 1075.32 403.42   Q 1070.72 409.07 1070.68 409.11   Q 1051.43 431.38 1029.38 456.62   C 1022.63 464.35 1017.11 471.38 1010.97 478.20   Q 1007.81 481.72 997.19 494.42   Q 988.81 504.45 976.16 518.89   C 969.57 526.42 962.96 534.73 957.38 541.11   Q 947.50 552.42 943.22 557.47   Q 923.89 580.28 902.49 604.72   Q 900.73 606.73 896.70 611.94"/>
<path stroke="#65514f" d="M 846.50 669.87   Q 846.36 669.89 846.23 669.89   A 0.67 0.67 0.0 0 1 845.71 669.64   Q 818.74 635.92 796.47 601.01   Q 796.03 600.32 796.48 599.68"/>
<path stroke="#65514f" d="M 940.13 415.31   Q 939.67 414.43 940.35 414.38   A 0.41 0.40 -28.4 0 1 940.62 414.46   Q 953.92 424.18 961.19 438.55   A 1.57 1.57 0.0 0 1 961.35 439.46   L 961.29 439.94"/>
<path stroke="#65514f" d="M 962.26 487.24   Q 969.62 480.70 976.14 474.14   Q 991.01 459.16 994.10 455.60   C 1000.10 448.68 1010.38 437.95 1017.52 429.37   C 1024.70 420.76 1031.40 413.52 1038.25 405.32   Q 1054.74 385.61 1067.36 369.77   A 2.22 2.22 0.0 0 0 1067.41 367.07   Q 1066.40 365.68 1066.63 364.92"/>
<path stroke="#65514f" d="M 1049.65 341.36   C 1041.67 333.39 1033.82 325.21 1025.05 318.19   Q 1023.45 316.91 1024.07 316.56"/>
<path stroke="#65514f" d="M 423.90 1169.65   Q 427.07 1165.09 429.72 1162.22   Q 461.61 1127.60 491.70 1092.25   Q 503.40 1078.50 511.61 1069.53   C 529.71 1049.75 547.64 1027.56 563.90 1009.31   C 572.84 999.27 583.46 986.18 593.81 974.58   Q 593.88 974.50 601.37 965.66   Q 606.77 959.29 613.40 953.53"/>
<path stroke="#65514f" d="M 767.32 771.58   Q 767.40 770.96 766.78 770.22   Q 758.09 759.92 749.40 748.47   C 737.03 732.17 730.04 723.37 718.00 706.52   Q 716.17 703.97 713.90 701.76"/>
<path stroke="#c59b86" d="M 347.57 1200.09   Q 349.32 1198.70 349.78 1197.28"/>
<path stroke="#65514f" d="M 349.78 1197.28   Q 350.89 1196.84 351.59 1195.85   C 369.40 1170.69 388.13 1146.25 404.88 1122.85   Q 414.81 1108.98 436.98 1079.49   Q 453.33 1057.74 470.26 1032.65"/>
<path stroke="#65514f" d="M 522.61 959.24   Q 536.69 942.89 548.70 926.46   Q 561.07 909.55 573.54 892.64   Q 578.06 886.51 598.69 859.04   Q 614.93 837.42 630.66 815.42   Q 631.92 813.66 632.32 811.08"/>
<path stroke="#7a8890" d="M 989.74 294.12   L 981.76 290.20   A 1.64 1.06 -12.0 0 0 981.50 290.10   C 979.08 289.46 977.15 288.00 974.91 287.04   Q 968.37 284.25 959.05 280.60   Q 958.14 280.25 954.76 279.27   Q 953.55 278.93 950.52 277.75   Q 945.65 275.86 940.89 274.97   Q 937.19 274.29 934.14 273.58   Q 928.26 272.22 927.36 272.10   Q 915.06 270.51 910.94 269.74   C 901.13 267.92 893.56 267.72 882.66 266.99   Q 876.88 266.60 870.84 267.22   Q 865.07 267.81 856.00 267.66   Q 855.93 267.66 843.49 268.70   Q 839.93 269.00 836.58 269.89   Q 833.58 270.69 829.69 271.31   C 820.25 272.82 810.67 275.52 801.51 277.53   C 792.28 279.56 783.18 283.53 773.80 287.49   C 769.78 289.18 766.77 291.12 762.71 292.98   Q 759.12 294.62 754.45 297.25   Q 741.73 304.40 729.64 313.62   Q 702.92 333.99 682.43 360.61   C 678.11 366.22 671.99 375.25 668.55 380.79   Q 662.05 391.28 656.19 403.22   C 654.15 407.39 652.52 412.20 650.56 416.31   Q 648.81 419.98 646.82 426.31   C 644.63 433.25 642.48 439.55 641.43 445.89   A 1.61 1.57 71.8 0 1 641.04 446.69   Q 640.74 447.02 640.68 447.24   Q 639.74 451.01 638.42 455.02   A 1.71 1.34 -38.0 0 0 638.36 455.26   L 635.72 474.60   A 1.03 0.47 69.4 0 0 635.71 474.75   Q 635.94 479.13 634.82 482.47   Q 633.88 485.26 633.79 488.15   Q 633.29 504.82 633.37 512.48   A 3.17 3.09 -54.9 0 0 633.53 513.47   C 634.42 516.15 634.09 519.39 634.50 522.64   Q 635.50 530.63 635.98 536.20   C 636.49 542.10 637.84 548.57 638.39 553.56   C 638.77 556.95 639.99 559.70 640.86 562.75   C 641.76 565.91 642.29 568.82 643.53 572.05   Q 646.44 579.63 648.04 586.51   A 4.42 4.27 -68.2 0 0 648.56 587.78   Q 650.22 590.47 654.26 600.97   Q 657.08 608.31 665.47 624.68"/>
<path stroke="#7a8890" d="M 833.76 267.87   L 834.46 267.95"/>
<path stroke="#c59b86" d="M 834.46 267.95   L 837.46 267.86"/>
<path stroke="#7a8890" d="M 349.78 1197.28   L 346.52 1198.48   A 1.59 1.59 0.0 0 1 345.84 1198.57   Q 344.62 1198.49 344.28 1199.22"/>
<path stroke="#134163" d="M 193.97 1189.48   Q 198.86 1193.16 199.75 1195.08   C 204.18 1204.72 208.62 1212.62 220.49 1213.52   C 226.95 1214.01 234.51 1213.77 242.66 1214.18   Q 249.76 1214.55 252.35 1214.06   Q 269.95 1210.76 274.97 1209.65   Q 285.15 1207.39 293.23 1203.38   C 298.99 1200.53 303.99 1198.50 308.22 1197.76   Q 316.01 1196.41 322.10 1194.18   C 326.77 1192.48 334.45 1187.11 340.73 1183.72   C 344.41 1181.74 350.46 1179.44 353.50 1175.48   C 360.11 1166.88 364.82 1161.23 370.60 1152.67   Q 375.52 1145.37 380.71 1137.96   C 383.77 1133.59 388.37 1128.57 390.85 1125.90   Q 394.13 1122.36 397.98 1116.48   C 402.03 1110.27 406.33 1105.53 409.83 1099.00   Q 413.99 1091.28 417.97 1086.46   Q 423.39 1079.92 438.31 1062.84   Q 444.69 1055.53 451.09 1042.37   Q 453.50 1037.39 453.85 1032.05   Q 454.39 1023.74 452.29 1016.47   C 450.37 1009.87 446.82 1004.57 444.16 997.92   Q 440.55 988.94 439.62 984.57   Q 435.56 965.65 432.97 945.67   Q 431.39 933.48 431.42 921.48   C 431.45 905.83 431.29 898.17 432.10 890.39   Q 432.19 889.52 435.12 870.75   Q 436.25 863.52 438.87 857.18   C 440.51 853.23 442.80 849.92 445.28 845.89   C 449.74 838.68 452.80 830.79 456.53 822.51   Q 460.02 814.75 465.95 809.71   Q 470.07 806.20 475.22 802.13   Q 483.05 795.96 484.76 794.91   C 491.43 790.84 501.40 789.70 509.00 791.13   C 515.80 792.41 523.41 794.71 529.52 799.23   C 539.98 806.98 547.77 812.97 553.74 823.84   C 558.78 833.03 556.59 841.45 554.97 851.52   C 553.59 860.04 555.17 868.34 555.00 876.25   C 554.87 881.94 555.50 885.80 558.34 890.09   A 0.59 0.58 61.8 0 0 559.05 890.31   Q 563.34 888.65 566.29 885.20   Q 572.11 878.37 575.61 874.29   C 578.35 871.09 581.22 866.94 582.63 863.90   C 586.48 855.63 589.24 850.25 593.53 845.79   Q 601.40 837.61 602.39 836.42   Q 608.05 829.57 615.15 817.03   C 620.29 807.95 616.92 791.64 613.35 782.68   C 611.02 776.83 606.69 770.57 603.60 765.57   C 597.22 755.25 593.86 749.02 584.29 743.75   Q 569.34 735.50 557.92 731.19   C 554.18 729.78 549.55 727.34 544.86 725.31   Q 541.53 723.87 534.53 722.82   C 524.33 721.28 514.25 718.02 503.94 719.71   C 490.11 721.97 475.11 725.28 461.33 730.07   C 446.82 735.11 431.91 741.24 420.67 751.88   C 416.94 755.41 413.43 759.22 409.16 762.13   Q 398.03 769.74 390.33 776.59   Q 384.63 781.66 382.15 785.17   Q 373.11 797.95 366.36 807.06   C 360.29 815.26 357.64 822.94 354.00 833.65   C 353.00 836.61 351.42 839.54 349.99 842.20   C 347.41 846.99 345.83 852.69 343.92 857.96   C 341.79 863.89 338.83 868.77 336.76 875.01   Q 332.37 888.19 329.34 903.29   Q 326.44 917.75 326.10 919.99   C 324.02 933.88 323.49 948.41 326.19 962.38   C 326.69 964.96 328.47 968.66 328.99 971.20   C 329.92 975.74 330.33 981.62 331.70 987.51   Q 332.99 993.04 334.59 1002.60   Q 334.75 1003.57 338.61 1016.95   Q 340.29 1022.77 343.91 1030.86   Q 348.32 1040.73 351.40 1051.65   C 353.09 1057.64 356.14 1062.89 358.66 1068.81   C 360.80 1073.81 364.49 1078.57 366.70 1083.83   Q 368.21 1087.43 369.24 1090.61   Q 373.82 1104.84 362.87 1113.81   Q 356.46 1119.06 353.99 1120.26   Q 338.65 1127.72 322.18 1131.89   C 309.71 1135.05 297.42 1139.80 284.41 1141.96   C 277.01 1143.20 271.09 1143.86 266.19 1145.98   C 257.27 1149.85 250.05 1152.45 240.39 1152.38   Q 232.35 1152.33 224.36 1152.03   Q 220.76 1151.89 208.97 1153.52   Q 196.37 1155.27 189.58 1164.23"/>
<path stroke="#7a8890" d="M 330.42 1024.30   Q 327.48 1010.17 324.51 996.19   Q 321.84 983.67 321.17 976.72   Q 320.22 966.87 319.45 957.00   Q 318.87 949.56 319.35 936.68   Q 319.78 925.50 320.52 916.37   Q 321.76 901.14 326.20 881.19   Q 333.46 848.52 346.93 820.48"/>
<path stroke="#65514f" d="M 834.46 267.86   Q 834.46 267.90 834.46 267.95"/>
<path stroke="#c59b86" d="M 326.40 867.41   Q 326.70 867.23 326.68 866.50"/>
<path stroke="#c59b86" d="M 326.68 866.50   Q 326.93 866.13 326.90 865.55"/>
<path stroke="#c59b86" d="M 328.28 861.21   Q 328.41 860.90 328.43 860.54"/>
<path stroke="#134163" d="M 948.43 284.28   Q 936.61 281.72 931.69 281.05   Q 924.58 280.08 917.21 278.44   C 909.40 276.69 900.71 274.64 892.18 274.80   Q 866.74 275.29 851.42 276.06   Q 834.63 276.90 829.47 277.57   Q 819.10 278.93 807.27 282.25   C 797.63 284.95 788.78 290.40 779.42 294.06   Q 772.69 296.69 770.34 298.37   Q 756.99 307.92 746.96 313.87   C 725.52 326.57 711.45 343.31 696.01 361.75   Q 688.84 370.31 683.19 379.32   C 676.00 390.80 665.92 402.69 660.27 416.28   Q 654.82 429.36 650.63 440.18   Q 649.39 443.38 645.99 455.67   C 642.92 466.77 641.00 474.48 641.60 484.57   Q 641.99 491.18 642.74 498.56   C 643.97 510.67 640.84 523.90 643.18 536.54   C 644.65 544.51 649.09 554.39 650.81 561.54   Q 654.01 574.82 657.70 584.89   C 660.94 593.74 668.51 606.89 672.76 618.60   Q 674.55 623.53 678.21 629.57   Q 687.52 644.94 691.31 649.95   Q 702.14 664.26 711.75 675.87   Q 714.86 679.64 715.56 681.52   Q 718.41 689.17 723.86 695.26   C 725.29 696.87 727.03 700.14 727.92 702.09   Q 733.82 714.93 742.34 724.99   C 751.41 735.71 758.62 745.54 768.36 756.03   A 21.22 21.11 -4.2 0 0 771.85 759.03   C 776.16 761.97 778.47 763.67 781.18 767.76   C 784.20 772.32 785.73 779.09 788.20 782.34   C 793.10 788.77 796.93 796.01 802.48 802.81   Q 810.47 812.60 817.22 825.39   C 818.07 827.00 819.55 829.14 820.65 830.49   C 830.57 842.62 834.30 855.33 837.30 870.32   C 838.91 878.35 841.95 887.47 842.97 895.45   Q 844.30 905.88 843.95 909.40   Q 842.69 921.84 843.49 939.12   Q 843.98 949.71 841.72 961.99   Q 841.36 963.92 838.95 971.91   Q 836.61 979.63 835.92 981.75   C 832.32 992.84 825.72 1004.42 818.74 1014.12   Q 814.52 1019.97 810.52 1026.12   Q 794.11 1051.37 768.85 1069.96   C 761.12 1075.65 753.55 1082.10 745.25 1086.95   Q 733.56 1093.77 732.78 1094.27   Q 729.06 1096.64 724.72 1098.57   C 720.60 1100.42 715.57 1103.79 710.49 1105.44   Q 707.22 1106.50 700.39 1108.13   C 693.82 1109.70 685.74 1113.34 678.11 1114.00   C 668.74 1114.81 663.54 1115.17 655.82 1117.97   C 647.19 1121.09 639.07 1120.38 629.18 1119.60   Q 623.89 1119.18 616.83 1119.13   Q 605.95 1119.06 603.93 1118.75   Q 592.99 1117.10 587.69 1116.59   Q 582.01 1116.04 577.04 1114.48   C 568.70 1111.85 558.93 1111.78 550.81 1107.18   C 546.18 1104.55 540.93 1100.52 535.73 1097.99   Q 528.56 1094.52 521.48 1088.52   Q 514.29 1082.42 507.55 1089.14   C 501.03 1095.66 498.15 1097.98 494.61 1103.39   Q 494.11 1104.15 491.01 1109.20   C 485.69 1117.88 479.73 1122.32 470.46 1129.19   Q 466.93 1131.81 464.47 1135.24   Q 458.90 1143.00 451.99 1150.99   Q 445.38 1158.63 449.40 1167.86   Q 453.35 1176.92 455.03 1178.79   Q 461.90 1186.44 469.14 1190.06   Q 480.04 1195.52 495.79 1200.40   C 500.35 1201.81 505.02 1204.07 509.48 1205.55   Q 524.87 1210.67 533.02 1213.78   Q 537.01 1215.30 540.50 1216.10   C 552.52 1218.84 565.02 1219.50 575.62 1221.06   C 590.75 1223.28 604.15 1223.83 618.17 1225.40   C 625.82 1226.26 633.01 1225.39 640.09 1224.17   Q 655.67 1221.50 665.09 1220.08   C 671.94 1219.05 679.55 1216.36 684.95 1215.52   Q 692.00 1214.42 706.81 1211.80   C 719.13 1209.63 729.91 1205.42 741.77 1202.11   Q 743.54 1201.61 745.21 1200.76   Q 758.82 1193.79 776.14 1187.75   C 778.07 1187.07 780.80 1185.62 782.37 1184.57   Q 789.30 1179.97 794.53 1176.86   Q 800.21 1173.50 802.15 1171.72   C 806.90 1167.37 813.08 1161.41 820.05 1158.82   C 826.56 1156.40 831.63 1153.78 836.65 1148.42   C 841.13 1143.63 847.81 1137.05 854.79 1131.94   Q 864.43 1124.87 876.84 1112.08   Q 884.90 1103.76 890.25 1095.83   C 896.86 1086.04 905.98 1078.43 910.73 1067.51   C 915.77 1055.96 922.03 1045.37 926.98 1033.49   C 930.27 1025.59 934.19 1019.38 936.35 1011.52   Q 941.56 992.57 948.16 973.58   C 950.54 966.75 952.64 959.28 952.88 953.83   C 953.42 941.41 953.52 933.85 955.57 924.30   C 958.81 909.19 955.81 898.56 952.10 882.78   Q 951.26 879.19 950.15 866.78   Q 949.34 857.82 948.91 855.86   C 946.51 845.03 943.92 839.91 937.66 824.36   C 935.11 818.03 931.62 813.11 929.13 807.39   C 926.39 801.12 921.43 793.30 918.18 785.75   Q 916.87 782.72 913.83 776.72   Q 908.66 766.53 904.27 758.23   Q 898.84 747.96 893.20 742.54   Q 874.12 724.19 872.49 722.42   C 871.36 721.20 869.62 719.42 868.44 717.42   Q 864.66 711.00 863.54 709.20   Q 858.36 700.89 848.82 690.32   Q 847.48 688.84 845.68 686.23   Q 835.99 672.21 828.68 660.12   C 825.31 654.54 820.91 648.97 816.23 644.06   C 808.16 635.58 803.71 631.12 798.35 622.75   Q 790.90 611.10 779.87 595.62   C 776.10 590.33 774.51 584.45 772.14 579.10   Q 765.06 563.09 763.19 557.83   Q 762.27 555.23 758.73 548.06   C 752.32 535.05 752.49 521.55 753.30 507.09   C 753.72 499.56 752.84 493.08 752.78 486.52   Q 752.69 477.15 754.82 465.60   Q 756.93 454.15 763.58 444.08   Q 770.95 432.91 780.34 421.10   Q 782.22 418.73 783.79 417.52   Q 794.01 409.59 803.78 401.47   C 806.87 398.90 810.54 396.54 813.90 394.89   Q 828.26 387.88 845.28 382.05   C 853.36 379.28 863.92 380.07 872.25 381.26   Q 895.63 384.57 901.55 385.13   Q 912.23 386.12 922.26 391.71   C 928.14 394.98 933.74 399.33 939.27 402.52   C 948.07 407.58 955.36 411.84 960.26 420.95   Q 967.30 434.04 971.70 447.55   C 975.93 460.55 987.21 451.54 992.58 445.36   Q 1005.45 430.53 1011.15 421.70   Q 1015.69 414.65 1017.94 412.32   Q 1025.66 404.34 1026.00 403.99   Q 1030.67 399.21 1044.73 381.75   C 1048.54 377.01 1052.01 370.91 1051.49 364.63   Q 1051.28 362.11 1047.48 356.57   C 1043.08 350.16 1038.61 340.29 1032.24 334.81   C 1023.23 327.06 1015.02 319.67 1004.99 313.68   Q 998.98 310.08 992.80 304.72   C 991.62 303.69 989.02 302.27 987.97 301.80   Q 958.51 288.52 949.28 284.56   A 4.80 4.61 -25.6 0 0 948.43 284.28"/>
<path stroke="#134163" d="M 1074.24 417.67   Q 1068.89 421.87 1068.28 422.54   Q 1063.59 427.74 1055.00 436.75   Q 1048.12 443.97 1043.65 454.05   Q 1041.30 459.34 1037.58 463.58   C 1034.64 466.93 1030.12 470.57 1026.91 474.74   C 1023.16 479.62 1020.38 482.93 1014.75 487.45   C 1009.47 491.70 1005.92 496.91 1002.38 501.34   C 998.18 506.61 993.66 510.61 988.88 515.04   C 987.42 516.39 985.38 518.61 984.46 519.96   C 979.18 527.79 974.17 533.88 968.52 541.98   Q 962.22 551.02 952.62 562.38   Q 950.87 564.45 949.75 565.28   C 940.98 571.71 936.06 575.68 929.82 582.81   Q 922.24 591.46 914.44 600.16   C 912.17 602.69 910.06 606.48 911.53 609.59   C 913.94 614.72 918.95 618.87 923.76 622.01   C 928.80 625.30 936.91 627.02 942.14 629.82   Q 948.09 633.02 960.34 640.68   C 969.76 646.57 980.67 650.90 991.55 645.76   Q 994.92 644.17 1000.81 638.40   Q 1006.07 633.26 1010.96 629.63   Q 1013.32 627.89 1015.27 625.12   C 1019.21 619.55 1023.06 615.03 1028.30 611.37   C 1033.25 607.91 1037.78 604.43 1041.12 600.66   C 1044.54 596.80 1047.33 590.62 1050.20 585.58   C 1052.77 581.06 1055.95 578.01 1059.36 573.87   Q 1064.08 568.15 1067.70 558.94   C 1068.91 555.84 1069.84 553.99 1071.55 550.79   A 3.91 3.90 66.0 0 0 1071.92 549.82   C 1073.90 541.61 1077.79 532.73 1079.48 524.87   Q 1081.53 515.35 1081.88 512.52   Q 1084.15 494.05 1088.53 476.11   C 1089.36 472.71 1089.84 467.78 1089.37 465.20   Q 1087.80 456.61 1087.70 448.37   Q 1087.67 446.31 1086.72 444.56   C 1084.05 439.65 1083.92 432.22 1083.24 428.90   C 1082.15 423.59 1080.70 419.12 1075.24 417.48   A 1.12 1.12 0.0 0 0 1074.24 417.67"/>
</g>
<path xmlns="http://www.w3.org/2000/svg" fill="#af6445" d="M 1081.68 396.88   Q 1078.40 399.63 1075.32 403.42   Q 1070.72 409.07 1070.68 409.11   Q 1051.43 431.38 1029.38 456.62   C 1022.63 464.35 1017.11 471.38 1010.97 478.20   Q 1007.81 481.72 997.19 494.42   Q 988.81 504.45 976.16 518.89   C 969.57 526.42 962.96 534.73 957.38 541.11   Q 947.50 552.42 943.22 557.47   Q 923.89 580.28 902.49 604.72   Q 900.73 606.73 896.70 611.94   Q 894.85 611.97 893.49 613.49   Q 872.11 637.51 854.55 658.01   C 851.80 661.22 849.53 663.36 846.63 666.40   A 1.19 1.14 65.8 0 0 846.32 667.27   L 846.50 669.87   Q 846.36 669.89 846.23 669.89   A 0.67 0.67 0.0 0 1 845.71 669.64   Q 818.74 635.92 796.47 601.01   Q 796.03 600.32 796.48 599.68   Q 797.43 600.85 798.00 600.02   Q 801.12 595.51 804.39 591.11   Q 866.30 507.71 931.01 426.48   Q 935.62 420.69 940.13 415.31   Q 939.67 414.43 940.35 414.38   A 0.41 0.40 -28.4 0 1 940.62 414.46   Q 953.92 424.18 961.19 438.55   A 1.57 1.57 0.0 0 1 961.35 439.46   L 961.29 439.94   L 959.28 442.54   A 2.70 2.52 -85.1 0 1 958.57 443.18   Q 956.53 444.42 955.09 446.35   Q 935.00 473.19 917.85 503.09   Q 915.56 507.07 913.92 511.88   Q 912.20 516.93 912.13 517.58   C 911.79 520.85 913.59 525.41 917.51 524.77   Q 921.20 524.16 924.24 522.27   C 933.68 516.41 942.97 507.42 953.33 497.58   Q 957.08 494.01 962.26 487.24   Q 969.62 480.70 976.14 474.14   Q 991.01 459.16 994.10 455.60   C 1000.10 448.68 1010.38 437.95 1017.52 429.37   C 1024.70 420.76 1031.40 413.52 1038.25 405.32   Q 1054.74 385.61 1067.36 369.77   A 2.22 2.22 0.0 0 0 1067.41 367.07   Q 1066.40 365.68 1066.63 364.92   Q 1067.50 366.11 1068.54 366.84   A 0.55 0.55 0.0 0 0 1069.29 366.72   Q 1081.59 349.93 1093.20 335.01   C 1098.57 328.11 1103.65 320.43 1109.82 312.44   C 1116.02 304.41 1121.29 296.80 1130.21 284.47   Q 1139.61 271.50 1146.43 257.98   C 1148.87 253.14 1149.25 250.01 1148.84 244.81   A 1.01 1.00 -5.5 0 0 1147.72 243.89   C 1144.66 244.26 1142.88 244.84 1140.05 246.98   Q 1123.44 259.56 1112.09 270.34   Q 1095.53 286.06 1070.95 311.45   Q 1064.00 318.64 1057.43 327.16   C 1055.02 330.29 1052.39 332.74 1049.67 335.66   A 2.67 2.64 61.6 0 0 1049.00 337.95   L 1049.65 341.36   C 1041.67 333.39 1033.82 325.21 1025.05 318.19   Q 1023.45 316.91 1024.07 316.56   Q 1025.58 316.25 1027.28 314.27   Q 1041.56 297.65 1056.19 283.19   C 1066.99 272.53 1082.76 259.55 1092.84 249.83   C 1100.81 242.14 1113.21 230.42 1124.06 221.09   Q 1148.22 200.31 1169.59 184.07   C 1178.09 177.62 1183.97 173.60 1193.30 167.07   C 1204.04 159.54 1212.58 154.05 1222.52 150.04   Q 1228.51 147.62 1232.66 147.52   C 1245.15 147.24 1233.32 176.18 1230.99 181.01   Q 1216.33 211.38 1197.09 241.62   Q 1175.33 275.82 1151.47 307.50   C 1141.78 320.36 1133.52 332.19 1123.87 343.87   Q 1097.72 375.54 1083.61 392.52   A 2.50 2.37 77.3 0 0 1083.24 393.14   L 1081.68 396.88   Z"/>
<path xmlns="http://www.w3.org/2000/svg" fill="#dbd3c7" fill-opacity="0.996" d="M 989.74 294.12   L 981.76 290.20   A 1.64 1.06 -12.0 0 0 981.50 290.10   C 979.08 289.46 977.15 288.00 974.91 287.04   Q 968.37 284.25 959.05 280.60   Q 958.14 280.25 954.76 279.27   Q 953.55 278.93 950.52 277.75   Q 945.65 275.86 940.89 274.97   Q 937.19 274.29 934.14 273.58   Q 928.26 272.22 927.36 272.10   Q 915.06 270.51 910.94 269.74   C 901.13 267.92 893.56 267.72 882.66 266.99   Q 876.88 266.60 870.84 267.22   Q 865.07 267.81 856.00 267.66   Q 855.93 267.66 843.49 268.70   Q 839.93 269.00 836.58 269.89   Q 833.58 270.69 829.69 271.31   C 820.25 272.82 810.67 275.52 801.51 277.53   C 792.28 279.56 783.18 283.53 773.80 287.49   C 769.78 289.18 766.77 291.12 762.71 292.98   Q 759.12 294.62 754.45 297.25   Q 741.73 304.40 729.64 313.62   Q 702.92 333.99 682.43 360.61   C 678.11 366.22 671.99 375.25 668.55 380.79   Q 662.05 391.28 656.19 403.22   C 654.15 407.39 652.52 412.20 650.56 416.31   Q 648.81 419.98 646.82 426.31   C 644.63 433.25 642.48 439.55 641.43 445.89   A 1.61 1.57 71.8 0 1 641.04 446.69   Q 640.74 447.02 640.68 447.24   Q 639.74 451.01 638.42 455.02   A 1.71 1.34 -38.0 0 0 638.36 455.26   L 635.72 474.60   A 1.03 0.47 69.4 0 0 635.71 474.75   Q 635.94 479.13 634.82 482.47   Q 633.88 485.26 633.79 488.15   Q 633.29 504.82 633.37 512.48   A 3.17 3.09 -54.9 0 0 633.53 513.47   C 634.42 516.15 634.09 519.39 634.50 522.64   Q 635.50 530.63 635.98 536.20   C 636.49 542.10 637.84 548.57 638.39 553.56   C 638.77 556.95 639.99 559.70 640.86 562.75   C 641.76 565.91 642.29 568.82 643.53 572.05   Q 646.44 579.63 648.04 586.51   A 4.42 4.27 -68.2 0 0 648.56 587.78   Q 650.22 590.47 654.26 600.97   Q 657.08 608.31 665.47 624.68   Q 654.59 608.28 651.60 603.16   C 649.20 599.05 647.27 592.72 644.91 587.84   Q 642.23 582.29 641.66 580.60   Q 635.17 561.17 632.62 544.63   C 631.07 534.56 628.93 521.15 628.79 509.39   Q 628.44 479.50 634.63 450.36   Q 636.18 443.04 642.05 426.25   Q 647.25 411.34 655.49 397.43   Q 659.46 390.73 668.19 379.12   C 674.43 370.83 679.93 362.47 685.90 355.21   C 694.28 345.03 705.28 333.25 716.47 323.65   Q 720.56 320.14 726.77 314.77   C 735.35 307.36 746.77 300.70 757.19 294.53   C 765.85 289.40 774.18 286.49 783.48 282.38   C 790.72 279.17 799.59 276.56 807.71 273.74   Q 814.94 271.23 833.76 267.87   L 834.46 267.95   L 837.46 267.86   Q 847.60 267.32 857.73 266.62   Q 860.90 266.40 876.08 266.20   C 889.94 266.01 904.53 267.86 917.80 269.84   Q 926.41 271.12 930.94 272.32   C 936.57 273.81 942.52 274.84 948.25 276.59   Q 969.87 283.19 989.74 294.12   Z"/>
<path xmlns="http://www.w3.org/2000/svg" fill="#1a3e59" d="M 989.74 294.12   Q 997.85 298.36 1005.48 303.53   Q 1014.94 309.92 1024.07 316.56   Q 1023.45 316.91 1025.05 318.19   C 1033.82 325.21 1041.67 333.39 1049.65 341.36   Q 1058.41 350.99 1062.08 357.41   Q 1065.51 363.41 1066.63 364.92   Q 1066.40 365.68 1067.41 367.07   A 2.22 2.22 0.0 0 1 1067.36 369.77   Q 1054.74 385.61 1038.25 405.32   C 1031.40 413.52 1024.70 420.76 1017.52 429.37   C 1010.38 437.95 1000.10 448.68 994.10 455.60   Q 991.01 459.16 976.14 474.14   Q 969.62 480.70 962.26 487.24   Q 964.23 481.72 965.05 477.00   C 966.89 466.39 966.34 455.77 963.31 445.31   Q 962.58 442.77 962.12 440.37   Q 962.04 439.93 961.29 439.94   L 961.35 439.46   A 1.57 1.57 0.0 0 0 961.19 438.55   Q 953.92 424.18 940.62 414.46   A 0.41 0.40 -28.4 0 0 940.35 414.38   Q 939.67 414.43 940.13 415.31   Q 939.14 412.24 937.34 410.91   Q 918.20 396.84 894.00 392.98   Q 876.14 390.12 857.81 391.84   C 843.50 393.18 831.32 395.74 818.73 401.74   Q 782.81 418.84 767.18 455.38   Q 759.09 474.31 758.53 498.69   C 758.37 505.85 758.58 512.40 759.86 518.89   C 763.95 539.66 772.12 559.14 782.76 577.76   Q 786.44 584.20 793.83 595.99   Q 795.06 597.95 796.48 599.68   Q 796.03 600.32 796.47 601.01   Q 818.74 635.92 845.71 669.64   A 0.67 0.67 0.0 0 0 846.23 669.89   Q 846.36 669.89 846.50 669.87   Q 847.06 671.09 847.90 672.12   Q 862.86 690.53 880.79 712.44   Q 886.78 719.76 892.71 727.05   Q 898.93 734.70 904.04 742.09   Q 914.02 756.52 916.84 761.20   Q 931.45 785.43 941.91 807.34   Q 953.09 830.75 959.65 859.01   Q 965.17 882.84 965.08 909.38   C 964.96 942.88 960.42 974.62 950.08 1006.04   Q 948.95 1009.50 946.98 1014.22   Q 946.47 1015.43 943.79 1022.32   Q 920.46 1082.21 879.54 1124.03   Q 855.91 1148.19 824.02 1169.97   Q 772.11 1205.43 710.83 1221.57   Q 703.10 1223.61 698.86 1224.45   C 693.06 1225.61 688.13 1227.02 682.79 1227.84   Q 658.32 1231.60 643.50 1232.75   Q 630.01 1233.80 605.03 1233.56   Q 592.83 1233.44 578.23 1231.52   Q 552.73 1228.16 550.43 1227.68   C 521.23 1221.63 495.71 1214.21 471.24 1201.46   Q 450.68 1190.73 432.13 1177.14   Q 427.36 1173.65 423.90 1169.65   Q 427.07 1165.09 429.72 1162.22   Q 461.61 1127.60 491.70 1092.25   Q 503.40 1078.50 511.61 1069.53   C 529.71 1049.75 547.64 1027.56 563.90 1009.31   C 572.84 999.27 583.46 986.18 593.81 974.58   Q 593.88 974.50 601.37 965.66   Q 606.77 959.29 613.40 953.53   Q 610.88 961.07 608.16 966.89   Q 600.23 983.85 593.11 996.90   C 576.38 1027.56 555.66 1055.67 532.32 1081.47   C 531.03 1082.89 529.80 1084.82 529.60 1086.61   A 1.64 1.63 -76.0 0 0 530.61 1088.30   C 536.59 1090.71 541.51 1093.59 546.98 1095.63   Q 563.84 1101.93 570.76 1103.74   Q 592.41 1109.40 621.24 1110.21   Q 627.84 1110.39 638.16 1109.64   Q 652.46 1108.60 655.02 1108.24   Q 678.54 1104.94 696.45 1098.38   Q 748.63 1079.29 787.96 1037.69   Q 792.42 1032.97 798.04 1025.85   Q 805.17 1016.81 807.44 1013.46   C 824.56 988.23 835.26 958.74 836.68 928.33   Q 837.47 911.41 835.57 898.91   Q 832.08 875.99 823.33 856.90   Q 814.88 838.48 808.04 827.43   Q 791.06 799.97 769.27 772.98   Q 768.70 772.26 767.32 771.58   Q 767.40 770.96 766.78 770.22   Q 758.09 759.92 749.40 748.47   C 737.03 732.17 730.04 723.37 718.00 706.52   Q 716.17 703.97 713.90 701.76   Q 713.93 701.17 713.65 700.78   Q 695.71 675.65 685.81 659.94   Q 678.09 647.68 665.47 624.68   Q 657.08 608.31 654.26 600.97   Q 650.22 590.47 648.56 587.78   A 4.42 4.27 -68.2 0 1 648.04 586.51   Q 646.44 579.63 643.53 572.05   C 642.29 568.82 641.76 565.91 640.86 562.75   C 639.99 559.70 638.77 556.95 638.39 553.56   C 637.84 548.57 636.49 542.10 635.98 536.20   Q 635.50 530.63 634.50 522.64   C 634.09 519.39 634.42 516.15 633.53 513.47   A 3.17 3.09 -54.9 0 1 633.37 512.48   Q 633.29 504.82 633.79 488.15   Q 633.88 485.26 634.82 482.47   Q 635.94 479.13 635.71 474.75   A 1.03 0.47 69.4 0 1 635.72 474.60   L 638.36 455.26   A 1.71 1.34 -38.0 0 1 638.42 455.02   Q 639.74 451.01 640.68 447.24   Q 640.74 447.02 641.04 446.69   A 1.61 1.57 71.8 0 0 641.43 445.89   C 642.48 439.55 644.63 433.25 646.82 426.31   Q 648.81 419.98 650.56 416.31   C 652.52 412.20 654.15 407.39 656.19 403.22   Q 662.05 391.28 668.55 380.79   C 671.99 375.25 678.11 366.22 682.43 360.61   Q 702.92 333.99 729.64 313.62   Q 741.73 304.40 754.45 297.25   Q 759.12 294.62 762.71 292.98   C 766.77 291.12 769.78 289.18 773.80 287.49   C 783.18 283.53 792.28 279.56 801.51 277.53   C 810.67 275.52 820.25 272.82 829.69 271.31   Q 833.58 270.69 836.58 269.89   Q 839.93 269.00 843.49 268.70   Q 855.93 267.66 856.00 267.66   Q 865.07 267.81 870.84 267.22   Q 876.88 266.60 882.66 266.99   C 893.56 267.72 901.13 267.92 910.94 269.74   Q 915.06 270.51 927.36 272.10   Q 928.26 272.22 934.14 273.58   Q 937.19 274.29 940.89 274.97   Q 945.65 275.86 950.52 277.75   Q 953.55 278.93 954.76 279.27   Q 958.14 280.25 959.05 280.60   Q 968.37 284.25 974.91 287.04   C 977.15 288.00 979.08 289.46 981.50 290.10   A 1.64 1.06 -12.0 0 1 981.76 290.20   L 989.74 294.12   Z   M 948.43 284.28   Q 936.61 281.72 931.69 281.05   Q 924.58 280.08 917.21 278.44   C 909.40 276.69 900.71 274.64 892.18 274.80   Q 866.74 275.29 851.42 276.06   Q 834.63 276.90 829.47 277.57   Q 819.10 278.93 807.27 282.25   C 797.63 284.95 788.78 290.40 779.42 294.06   Q 772.69 296.69 770.34 298.37   Q 756.99 307.92 746.96 313.87   C 725.52 326.57 711.45 343.31 696.01 361.75   Q 688.84 370.31 683.19 379.32   C 676.00 390.80 665.92 402.69 660.27 416.28   Q 654.82 429.36 650.63 440.18   Q 649.39 443.38 645.99 455.67   C 642.92 466.77 641.00 474.48 641.60 484.57   Q 641.99 491.18 642.74 498.56   C 643.97 510.67 640.84 523.90 643.18 536.54   C 644.65 544.51 649.09 554.39 650.81 561.54   Q 654.01 574.82 657.70 584.89   C 660.94 593.74 668.51 606.89 672.76 618.60   Q 674.55 623.53 678.21 629.57   Q 687.52 644.94 691.31 649.95   Q 702.14 664.26 711.75 675.87   Q 714.86 679.64 715.56 681.52   Q 718.41 689.17 723.86 695.26   C 725.29 696.87 727.03 700.14 727.92 702.09   Q 733.82 714.93 742.34 724.99   C 751.41 735.71 758.62 745.54 768.36 756.03   A 21.22 21.11 -4.2 0 0 771.85 759.03   C 776.16 761.97 778.47 763.67 781.18 767.76   C 784.20 772.32 785.73 779.09 788.20 782.34   C 793.10 788.77 796.93 796.01 802.48 802.81   Q 810.47 812.60 817.22 825.39   C 818.07 827.00 819.55 829.14 820.65 830.49   C 830.57 842.62 834.30 855.33 837.30 870.32   C 838.91 878.35 841.95 887.47 842.97 895.45   Q 844.30 905.88 843.95 909.40   Q 842.69 921.84 843.49 939.12   Q 843.98 949.71 841.72 961.99   Q 841.36 963.92 838.95 971.91   Q 836.61 979.63 835.92 981.75   C 832.32 992.84 825.72 1004.42 818.74 1014.12   Q 814.52 1019.97 810.52 1026.12   Q 794.11 1051.37 768.85 1069.96   C 761.12 1075.65 753.55 1082.10 745.25 1086.95   Q 733.56 1093.77 732.78 1094.27   Q 729.06 1096.64 724.72 1098.57   C 720.60 1100.42 715.57 1103.79 710.49 1105.44   Q 707.22 1106.50 700.39 1108.13   C 693.82 1109.70 685.74 1113.34 678.11 1114.00   C 668.74 1114.81 663.54 1115.17 655.82 1117.97   C 647.19 1121.09 639.07 1120.38 629.18 1119.60   Q 623.89 1119.18 616.83 1119.13   Q 605.95 1119.06 603.93 1118.75   Q 592.99 1117.10 587.69 1116.59   Q 582.01 1116.04 577.04 1114.48   C 568.70 1111.85 558.93 1111.78 550.81 1107.18   C 546.18 1104.55 540.93 1100.52 535.73 1097.99   Q 528.56 1094.52 521.48 1088.52   Q 514.29 1082.42 507.55 1089.14   C 501.03 1095.66 498.15 1097.98 494.61 1103.39   Q 494.11 1104.15 491.01 1109.20   C 485.69 1117.88 479.73 1122.32 470.46 1129.19   Q 466.93 1131.81 464.47 1135.24   Q 458.90 1143.00 451.99 1150.99   Q 445.38 1158.63 449.40 1167.86   Q 453.35 1176.92 455.03 1178.79   Q 461.90 1186.44 469.14 1190.06   Q 480.04 1195.52 495.79 1200.40   C 500.35 1201.81 505.02 1204.07 509.48 1205.55   Q 524.87 1210.67 533.02 1213.78   Q 537.01 1215.30 540.50 1216.10   C 552.52 1218.84 565.02 1219.50 575.62 1221.06   C 590.75 1223.28 604.15 1223.83 618.17 1225.40   C 625.82 1226.26 633.01 1225.39 640.09 1224.17   Q 655.67 1221.50 665.09 1220.08   C 671.94 1219.05 679.55 1216.36 684.95 1215.52   Q 692.00 1214.42 706.81 1211.80   C 719.13 1209.63 729.91 1205.42 741.77 1202.11   Q 743.54 1201.61 745.21 1200.76   Q 758.82 1193.79 776.14 1187.75   C 778.07 1187.07 780.80 1185.62 782.37 1184.57   Q 789.30 1179.97 794.53 1176.86   Q 800.21 1173.50 802.15 1171.72   C 806.90 1167.37 813.08 1161.41 820.05 1158.82   C 826.56 1156.40 831.63 1153.78 836.65 1148.42   C 841.13 1143.63 847.81 1137.05 854.79 1131.94   Q 864.43 1124.87 876.84 1112.08   Q 884.90 1103.76 890.25 1095.83   C 896.86 1086.04 905.98 1078.43 910.73 1067.51   C 915.77 1055.96 922.03 1045.37 926.98 1033.49   C 930.27 1025.59 934.19 1019.38 936.35 1011.52   Q 941.56 992.57 948.16 973.58   C 950.54 966.75 952.64 959.28 952.88 953.83   C 953.42 941.41 953.52 933.85 955.57 924.30   C 958.81 909.19 955.81 898.56 952.10 882.78   Q 951.26 879.19 950.15 866.78   Q 949.34 857.82 948.91 855.86   C 946.51 845.03 943.92 839.91 937.66 824.36   C 935.11 818.03 931.62 813.11 929.13 807.39   C 926.39 801.12 921.43 793.30 918.18 785.75   Q 916.87 782.72 913.83 776.72   Q 908.66 766.53 904.27 758.23   Q 898.84 747.96 893.20 742.54   Q 874.12 724.19 872.49 722.42   C 871.36 721.20 869.62 719.42 868.44 717.42   Q 864.66 711.00 863.54 709.20   Q 858.36 700.89 848.82 690.32   Q 847.48 688.84 845.68 686.23   Q 835.99 672.21 828.68 660.12   C 825.31 654.54 820.91 648.97 816.23 644.06   C 808.16 635.58 803.71 631.12 798.35 622.75   Q 790.90 611.10 779.87 595.62   C 776.10 590.33 774.51 584.45 772.14 579.10   Q 765.06 563.09 763.19 557.83   Q 762.27 555.23 758.73 548.06   C 752.32 535.05 752.49 521.55 753.30 507.09   C 753.72 499.56 752.84 493.08 752.78 486.52   Q 752.69 477.15 754.82 465.60   Q 756.93 454.15 763.58 444.08   Q 770.95 432.91 780.34 421.10   Q 782.22 418.73 783.79 417.52   Q 794.01 409.59 803.78 401.47   C 806.87 398.90 810.54 396.54 813.90 394.89   Q 828.26 387.88 845.28 382.05   C 853.36 379.28 863.92 380.07 872.25 381.26   Q 895.63 384.57 901.55 385.13   Q 912.23 386.12 922.26 391.71   C 928.14 394.98 933.74 399.33 939.27 402.52   C 948.07 407.58 955.36 411.84 960.26 420.95   Q 967.30 434.04 971.70 447.55   C 975.93 460.55 987.21 451.54 992.58 445.36   Q 1005.45 430.53 1011.15 421.70   Q 1015.69 414.65 1017.94 412.32   Q 1025.66 404.34 1026.00 403.99   Q 1030.67 399.21 1044.73 381.75   C 1048.54 377.01 1052.01 370.91 1051.49 364.63   Q 1051.28 362.11 1047.48 356.57   C 1043.08 350.16 1038.61 340.29 1032.24 334.81   C 1023.23 327.06 1015.02 319.67 1004.99 313.68   Q 998.98 310.08 992.80 304.72   C 991.62 303.69 989.02 302.27 987.97 301.80   Q 958.51 288.52 949.28 284.56   A 4.80 4.61 -25.6 0 0 948.43 284.28   Z"/>
<path xmlns="http://www.w3.org/2000/svg" fill="#1a3e59" d="M 834.46 267.86   Q 834.46 267.90 834.46 267.95   L 833.76 267.87   L 834.46 267.86   Z"/>
<path xmlns="http://www.w3.org/2000/svg" fill="#af6445" d="M 837.46 267.86   L 834.46 267.95   Q 834.46 267.90 834.46 267.86   L 837.46 267.86   Z"/>
<path xmlns="http://www.w3.org/2000/svg" fill="#0c436d" d="M 949.28 284.56   Q 958.51 288.52 987.97 301.80   C 989.02 302.27 991.62 303.69 992.80 304.72   Q 998.98 310.08 1004.99 313.68   C 1015.02 319.67 1023.23 327.06 1032.24 334.81   C 1038.61 340.29 1043.08 350.16 1047.48 356.57   Q 1051.28 362.11 1051.49 364.63   C 1052.01 370.91 1048.54 377.01 1044.73 381.75   Q 1030.67 399.21 1026.00 403.99   Q 1025.66 404.34 1017.94 412.32   Q 1015.69 414.65 1011.15 421.70   Q 1005.45 430.53 992.58 445.36   C 987.21 451.54 975.93 460.55 971.70 447.55   Q 967.30 434.04 960.26 420.95   C 955.36 411.84 948.07 407.58 939.27 402.52   C 933.74 399.33 928.14 394.98 922.26 391.71   Q 912.23 386.12 901.55 385.13   Q 895.63 384.57 872.25 381.26   C 863.92 380.07 853.36 379.28 845.28 382.05   Q 828.26 387.88 813.90 394.89   C 810.54 396.54 806.87 398.90 803.78 401.47   Q 794.01 409.59 783.79 417.52   Q 782.22 418.73 780.34 421.10   Q 770.95 432.91 763.58 444.08   Q 756.93 454.15 754.82 465.60   Q 752.69 477.15 752.78 486.52   C 752.84 493.08 753.72 499.56 753.30 507.09   C 752.49 521.55 752.32 535.05 758.73 548.06   Q 762.27 555.23 763.19 557.83   Q 765.06 563.09 772.14 579.10   C 774.51 584.45 776.10 590.33 779.87 595.62   Q 790.90 611.10 798.35 622.75   C 803.71 631.12 808.16 635.58 816.23 644.06   C 820.91 648.97 825.31 654.54 828.68 660.12   Q 835.99 672.21 845.68 686.23   Q 847.48 688.84 848.82 690.32   Q 858.36 700.89 863.54 709.20   Q 864.66 711.00 868.44 717.42   C 869.62 719.42 871.36 721.20 872.49 722.42   Q 874.12 724.19 893.20 742.54   Q 898.84 747.96 904.27 758.23   Q 908.66 766.53 913.83 776.72   Q 916.87 782.72 918.18 785.75   C 921.43 793.30 926.39 801.12 929.13 807.39   C 931.62 813.11 935.11 818.03 937.66 824.36   C 943.92 839.91 946.51 845.03 948.91 855.86   Q 949.34 857.82 950.15 866.78   Q 951.26 879.19 952.10 882.78   C 955.81 898.56 958.81 909.19 955.57 924.30   C 953.52 933.85 953.42 941.41 952.88 953.83   C 952.64 959.28 950.54 966.75 948.16 973.58   Q 941.56 992.57 936.35 1011.52   C 934.19 1019.38 930.27 1025.59 926.98 1033.49   C 922.03 1045.37 915.77 1055.96 910.73 1067.51   C 905.98 1078.43 896.86 1086.04 890.25 1095.83   Q 884.90 1103.76 876.84 1112.08   Q 864.43 1124.87 854.79 1131.94   C 847.81 1137.05 841.13 1143.63 836.65 1148.42   C 831.63 1153.78 826.56 1156.40 820.05 1158.82   C 813.08 1161.41 806.90 1167.37 802.15 1171.72   Q 800.21 1173.50 794.53 1176.86   Q 789.30 1179.97 782.37 1184.57   C 780.80 1185.62 778.07 1187.07 776.14 1187.75   Q 758.82 1193.79 745.21 1200.76   Q 743.54 1201.61 741.77 1202.11   C 729.91 1205.42 719.13 1209.63 706.81 1211.80   Q 692.00 1214.42 684.95 1215.52   C 679.55 1216.36 671.94 1219.05 665.09 1220.08   Q 655.67 1221.50 640.09 1224.17   C 633.01 1225.39 625.82 1226.26 618.17 1225.40   C 604.15 1223.83 590.75 1223.28 575.62 1221.06   C 565.02 1219.50 552.52 1218.84 540.50 1216.10   Q 537.01 1215.30 533.02 1213.78   Q 524.87 1210.67 509.48 1205.55   C 505.02 1204.07 500.35 1201.81 495.79 1200.40   Q 480.04 1195.52 469.14 1190.06   Q 461.90 1186.44 455.03 1178.79   Q 453.35 1176.92 449.40 1167.86   Q 445.38 1158.63 451.99 1150.99   Q 458.90 1143.00 464.47 1135.24   Q 466.93 1131.81 470.46 1129.19   C 479.73 1122.32 485.69 1117.88 491.01 1109.20   Q 494.11 1104.15 494.61 1103.39   C 498.15 1097.98 501.03 1095.66 507.55 1089.14   Q 514.29 1082.42 521.48 1088.52   Q 528.56 1094.52 535.73 1097.99   C 540.93 1100.52 546.18 1104.55 550.81 1107.18   C 558.93 1111.78 568.70 1111.85 577.04 1114.48   Q 582.01 1116.04 587.69 1116.59   Q 592.99 1117.10 603.93 1118.75   Q 605.95 1119.06 616.83 1119.13   Q 623.89 1119.18 629.18 1119.60   C 639.07 1120.38 647.19 1121.09 655.82 1117.97   C 663.54 1115.17 668.74 1114.81 678.11 1114.00   C 685.74 1113.34 693.82 1109.70 700.39 1108.13   Q 707.22 1106.50 710.49 1105.44   C 715.57 1103.79 720.60 1100.42 724.72 1098.57   Q 729.06 1096.64 732.78 1094.27   Q 733.56 1093.77 745.25 1086.95   C 753.55 1082.10 761.12 1075.65 768.85 1069.96   Q 794.11 1051.37 810.52 1026.12   Q 814.52 1019.97 818.74 1014.12   C 825.72 1004.42 832.32 992.84 835.92 981.75   Q 836.61 979.63 838.95 971.91   Q 841.36 963.92 841.72 961.99   Q 843.98 949.71 843.49 939.12   Q 842.69 921.84 843.95 909.40   Q 844.30 905.88 842.97 895.45   C 841.95 887.47 838.91 878.35 837.30 870.32   C 834.30 855.33 830.57 842.62 820.65 830.49   C 819.55 829.14 818.07 827.00 817.22 825.39   Q 810.47 812.60 802.48 802.81   C 796.93 796.01 793.10 788.77 788.20 782.34   C 785.73 779.09 784.20 772.32 781.18 767.76   C 778.47 763.67 776.16 761.97 771.85 759.03   A 21.22 21.11 -4.2 0 1 768.36 756.03   C 758.62 745.54 751.41 735.71 742.34 724.99   Q 733.82 714.93 727.92 702.09   C 727.03 700.14 725.29 696.87 723.86 695.26   Q 718.41 689.17 715.56 681.52   Q 714.86 679.64 711.75 675.87   Q 702.14 664.26 691.31 649.95   Q 687.52 644.94 678.21 629.57   Q 674.55 623.53 672.76 618.60   C 668.51 606.89 660.94 593.74 657.70 584.89   Q 654.01 574.82 650.81 561.54   C 649.09 554.39 644.65 544.51 643.18 536.54   C 640.84 523.90 643.97 510.67 642.74 498.56   Q 641.99 491.18 641.60 484.57   C 641.00 474.48 642.92 466.77 645.99 455.67   Q 649.39 443.38 650.63 440.18   Q 654.82 429.36 660.27 416.28   C 665.92 402.69 676.00 390.80 683.19 379.32   Q 688.84 370.31 696.01 361.75   C 711.45 343.31 725.52 326.57 746.96 313.87   Q 756.99 307.92 770.34 298.37   Q 772.69 296.69 779.42 294.06   C 788.78 290.40 797.63 284.95 807.27 282.25   Q 819.10 278.93 829.47 277.57   Q 834.63 276.90 851.42 276.06   Q 866.74 275.29 892.18 274.80   C 900.71 274.64 909.40 276.69 917.21 278.44   Q 924.58 280.08 931.69 281.05   Q 936.61 281.72 948.43 284.28   A 4.80 4.61 -25.6 0 1 949.28 284.56   Z"/>
<path xmlns="http://www.w3.org/2000/svg" fill="#1a3e59" d="M 1081.68 396.88   Q 1085.55 405.89 1087.95 415.53   Q 1090.90 427.38 1091.83 435.88   Q 1094.00 455.78 1094.05 456.25   Q 1094.28 458.19 1094.54 471.91   Q 1094.70 479.85 1094.02 487.56   Q 1092.57 504.11 1090.79 514.53   Q 1089.65 521.16 1086.96 532.27   Q 1085.06 540.14 1081.41 549.53   C 1074.36 567.67 1065.40 584.03 1053.55 599.44   Q 1043.85 612.05 1035.19 621.19   Q 1028.66 628.08 1017.82 637.32   Q 1003.01 649.95 984.81 663.03   Q 982.29 664.84 980.11 664.79   A 1.71 1.71 0.0 0 1 979.09 664.43   Q 969.89 657.46 968.87 656.86   C 960.93 652.17 953.27 647.26 944.36 642.18   Q 927.99 632.85 916.51 625.25   Q 906.82 618.84 900.28 613.47   Q 898.58 612.07 896.70 611.94   Q 900.73 606.73 902.49 604.72   Q 923.89 580.28 943.22 557.47   Q 947.50 552.42 957.38 541.11   C 962.96 534.73 969.57 526.42 976.16 518.89   Q 988.81 504.45 997.19 494.42   Q 1007.81 481.72 1010.97 478.20   C 1017.11 471.38 1022.63 464.35 1029.38 456.62   Q 1051.43 431.38 1070.68 409.11   Q 1070.72 409.07 1075.32 403.42   Q 1078.40 399.63 1081.68 396.88   Z   M 1074.24 417.67   Q 1068.89 421.87 1068.28 422.54   Q 1063.59 427.74 1055.00 436.75   Q 1048.12 443.97 1043.65 454.05   Q 1041.30 459.34 1037.58 463.58   C 1034.64 466.93 1030.12 470.57 1026.91 474.74   C 1023.16 479.62 1020.38 482.93 1014.75 487.45   C 1009.47 491.70 1005.92 496.91 1002.38 501.34   C 998.18 506.61 993.66 510.61 988.88 515.04   C 987.42 516.39 985.38 518.61 984.46 519.96   C 979.18 527.79 974.17 533.88 968.52 541.98   Q 962.22 551.02 952.62 562.38   Q 950.87 564.45 949.75 565.28   C 940.98 571.71 936.06 575.68 929.82 582.81   Q 922.24 591.46 914.44 600.16   C 912.17 602.69 910.06 606.48 911.53 609.59   C 913.94 614.72 918.95 618.87 923.76 622.01   C 928.80 625.30 936.91 627.02 942.14 629.82   Q 948.09 633.02 960.34 640.68   C 969.76 646.57 980.67 650.90 991.55 645.76   Q 994.92 644.17 1000.81 638.40   Q 1006.07 633.26 1010.96 629.63   Q 1013.32 627.89 1015.27 625.12   C 1019.21 619.55 1023.06 615.03 1028.30 611.37   C 1033.25 607.91 1037.78 604.43 1041.12 600.66   C 1044.54 596.80 1047.33 590.62 1050.20 585.58   C 1052.77 581.06 1055.95 578.01 1059.36 573.87   Q 1064.08 568.15 1067.70 558.94   C 1068.91 555.84 1069.84 553.99 1071.55 550.79   A 3.91 3.90 66.0 0 0 1071.92 549.82   C 1073.90 541.61 1077.79 532.73 1079.48 524.87   Q 1081.53 515.35 1081.88 512.52   Q 1084.15 494.05 1088.53 476.11   C 1089.36 472.71 1089.84 467.78 1089.37 465.20   Q 1087.80 456.61 1087.70 448.37   Q 1087.67 446.31 1086.72 444.56   C 1084.05 439.65 1083.92 432.22 1083.24 428.90   C 1082.15 423.59 1080.70 419.12 1075.24 417.48   A 1.12 1.12 0.0 0 0 1074.24 417.67   Z"/>
<path xmlns="http://www.w3.org/2000/svg" fill="#0c436d" d="M 1075.24 417.48   C 1080.70 419.12 1082.15 423.59 1083.24 428.90   C 1083.92 432.22 1084.05 439.65 1086.72 444.56   Q 1087.67 446.31 1087.70 448.37   Q 1087.80 456.61 1089.37 465.20   C 1089.84 467.78 1089.36 472.71 1088.53 476.11   Q 1084.15 494.05 1081.88 512.52   Q 1081.53 515.35 1079.48 524.87   C 1077.79 532.73 1073.90 541.61 1071.92 549.82   A 3.91 3.90 66.0 0 1 1071.55 550.79   C 1069.84 553.99 1068.91 555.84 1067.70 558.94   Q 1064.08 568.15 1059.36 573.87   C 1055.95 578.01 1052.77 581.06 1050.20 585.58   C 1047.33 590.62 1044.54 596.80 1041.12 600.66   C 1037.78 604.43 1033.25 607.91 1028.30 611.37   C 1023.06 615.03 1019.21 619.55 1015.27 625.12   Q 1013.32 627.89 1010.96 629.63   Q 1006.07 633.26 1000.81 638.40   Q 994.92 644.17 991.55 645.76   C 980.67 650.90 969.76 646.57 960.34 640.68   Q 948.09 633.02 942.14 629.82   C 936.91 627.02 928.80 625.30 923.76 622.01   C 918.95 618.87 913.94 614.72 911.53 609.59   C 910.06 606.48 912.17 602.69 914.44 600.16   Q 922.24 591.46 929.82 582.81   C 936.06 575.68 940.98 571.71 949.75 565.28   Q 950.87 564.45 952.62 562.38   Q 962.22 551.02 968.52 541.98   C 974.17 533.88 979.18 527.79 984.46 519.96   C 985.38 518.61 987.42 516.39 988.88 515.04   C 993.66 510.61 998.18 506.61 1002.38 501.34   C 1005.92 496.91 1009.47 491.70 1014.75 487.45   C 1020.38 482.93 1023.16 479.62 1026.91 474.74   C 1030.12 470.57 1034.64 466.93 1037.58 463.58   Q 1041.30 459.34 1043.65 454.05   Q 1048.12 443.97 1055.00 436.75   Q 1063.59 427.74 1068.28 422.54   Q 1068.89 421.87 1074.24 417.67   A 1.12 1.12 0.0 0 1 1075.24 417.48   Z"/>
<path xmlns="http://www.w3.org/2000/svg" fill="#af6445" d="M 767.32 771.58   Q 765.37 770.88 764.64 771.89   Q 755.09 785.16 749.89 791.16   Q 739.60 803.03 732.36 811.61   C 713.12 834.39 693.90 856.10 673.65 880.14   C 667.97 886.89 663.27 892.87 658.36 898.54   Q 637.95 922.09 619.04 944.94   Q 617.55 946.74 616.14 949.17   Q 614.65 951.75 613.40 953.53   Q 606.77 959.29 601.37 965.66   Q 593.88 974.50 593.81 974.58   C 583.46 986.18 572.84 999.27 563.90 1009.31   C 547.64 1027.56 529.71 1049.75 511.61 1069.53   Q 503.40 1078.50 491.70 1092.25   Q 461.61 1127.60 429.72 1162.22   Q 427.07 1165.09 423.90 1169.65   C 421.82 1171.48 419.78 1172.95 417.94 1175.03   Q 390.98 1205.51 363.98 1234.73   C 343.80 1256.57 331.95 1269.74 310.43 1293.18   Q 284.23 1321.72 255.43 1345.92   C 254.02 1347.11 252.14 1347.78 250.70 1349.27   Q 248.47 1351.57 244.51 1352.19   A 0.75 0.75 0.0 0 1 243.94 1350.86   C 246.84 1348.64 247.47 1346.29 249.47 1343.23   Q 278.13 1299.17 292.18 1277.93   Q 300.80 1264.89 319.50 1238.58   C 326.11 1229.28 332.78 1221.36 338.96 1212.58   Q 338.97 1212.56 343.54 1206.87   Q 346.12 1203.65 347.57 1200.09   Q 349.32 1198.70 349.78 1197.28   Q 350.89 1196.84 351.59 1195.85   C 369.40 1170.69 388.13 1146.25 404.88 1122.85   Q 414.81 1108.98 436.98 1079.49   Q 453.33 1057.74 470.26 1032.65   Q 471.31 1030.10 473.04 1027.98   Q 476.07 1024.26 476.13 1024.18   Q 494.82 997.90 513.82 971.84   Q 518.78 965.05 522.61 959.24   Q 536.69 942.89 548.70 926.46   Q 561.07 909.55 573.54 892.64   Q 578.06 886.51 598.69 859.04   Q 614.93 837.42 630.66 815.42   Q 631.92 813.66 632.32 811.08   Q 633.13 811.90 633.71 810.96   Q 637.89 804.28 643.89 796.47   C 654.60 782.51 665.59 767.34 689.51 734.99   Q 699.38 721.64 710.38 707.85   C 711.90 705.95 712.85 703.95 713.90 701.76   Q 716.17 703.97 718.00 706.52   C 730.04 723.37 737.03 732.17 749.40 748.47   Q 758.09 759.92 766.78 770.22   Q 767.40 770.96 767.32 771.58   Z"/>
<path xmlns="http://www.w3.org/2000/svg" fill="#1a3e59" d="M 632.32 811.08   Q 631.92 813.66 630.66 815.42   Q 614.93 837.42 598.69 859.04   Q 578.06 886.51 573.54 892.64   Q 561.07 909.55 548.70 926.46   Q 536.69 942.89 522.61 959.24   Q 527.35 948.15 531.51 937.73   Q 535.66 927.32 538.06 919.22   Q 541.60 907.24 543.30 900.28   Q 547.79 881.89 547.77 860.49   Q 547.76 842.07 541.84 826.12   C 536.90 812.83 528.81 803.66 514.45 800.08   Q 509.12 798.75 504.75 799.23   C 489.82 800.87 475.78 812.46 466.69 824.00   Q 459.12 833.63 453.16 848.11   Q 445.22 867.43 442.65 889.51   Q 439.77 914.34 440.73 929.86   Q 441.96 949.63 443.99 960.30   Q 450.02 991.92 464.24 1021.60   C 466.05 1025.39 468.14 1028.85 470.26 1032.65   Q 453.33 1057.74 436.98 1079.49   Q 414.81 1108.98 404.88 1122.85   C 388.13 1146.25 369.40 1170.69 351.59 1195.85   Q 350.89 1196.84 349.78 1197.28   L 346.52 1198.48   A 1.59 1.59 0.0 0 1 345.84 1198.57   Q 344.62 1198.49 344.28 1199.22   C 331.82 1201.79 319.86 1205.34 307.19 1208.44   Q 300.15 1210.16 266.66 1217.21   C 256.56 1219.33 243.14 1221.29 234.90 1222.71   Q 212.13 1226.65 205.50 1227.69   Q 203.40 1228.02 201.10 1227.76   A 1.30 1.29 -5.8 0 1 200.03 1226.89   C 198.30 1221.88 198.29 1216.18 197.41 1211.03   Q 195.56 1200.26 193.97 1189.48   Q 198.86 1193.16 199.75 1195.08   C 204.18 1204.72 208.62 1212.62 220.49 1213.52   C 226.95 1214.01 234.51 1213.77 242.66 1214.18   Q 249.76 1214.55 252.35 1214.06   Q 269.95 1210.76 274.97 1209.65   Q 285.15 1207.39 293.23 1203.38   C 298.99 1200.53 303.99 1198.50 308.22 1197.76   Q 316.01 1196.41 322.10 1194.18   C 326.77 1192.48 334.45 1187.11 340.73 1183.72   C 344.41 1181.74 350.46 1179.44 353.50 1175.48   C 360.11 1166.88 364.82 1161.23 370.60 1152.67   Q 375.52 1145.37 380.71 1137.96   C 383.77 1133.59 388.37 1128.57 390.85 1125.90   Q 394.13 1122.36 397.98 1116.48   C 402.03 1110.27 406.33 1105.53 409.83 1099.00   Q 413.99 1091.28 417.97 1086.46   Q 423.39 1079.92 438.31 1062.84   Q 444.69 1055.53 451.09 1042.37   Q 453.50 1037.39 453.85 1032.05   Q 454.39 1023.74 452.29 1016.47   C 450.37 1009.87 446.82 1004.57 444.16 997.92   Q 440.55 988.94 439.62 984.57   Q 435.56 965.65 432.97 945.67   Q 431.39 933.48 431.42 921.48   C 431.45 905.83 431.29 898.17 432.10 890.39   Q 432.19 889.52 435.12 870.75   Q 436.25 863.52 438.87 857.18   C 440.51 853.23 442.80 849.92 445.28 845.89   C 449.74 838.68 452.80 830.79 456.53 822.51   Q 460.02 814.75 465.95 809.71   Q 470.07 806.20 475.22 802.13   Q 483.05 795.96 484.76 794.91   C 491.43 790.84 501.40 789.70 509.00 791.13   C 515.80 792.41 523.41 794.71 529.52 799.23   C 539.98 806.98 547.77 812.97 553.74 823.84   C 558.78 833.03 556.59 841.45 554.97 851.52   C 553.59 860.04 555.17 868.34 555.00 876.25   C 554.87 881.94 555.50 885.80 558.34 890.09   A 0.59 0.58 61.8 0 0 559.05 890.31   Q 563.34 888.65 566.29 885.20   Q 572.11 878.37 575.61 874.29   C 578.35 871.09 581.22 866.94 582.63 863.90   C 586.48 855.63 589.24 850.25 593.53 845.79   Q 601.40 837.61 602.39 836.42   Q 608.05 829.57 615.15 817.03   C 620.29 807.95 616.92 791.64 613.35 782.68   C 611.02 776.83 606.69 770.57 603.60 765.57   C 597.22 755.25 593.86 749.02 584.29 743.75   Q 569.34 735.50 557.92 731.19   C 554.18 729.78 549.55 727.34 544.86 725.31   Q 541.53 723.87 534.53 722.82   C 524.33 721.28 514.25 718.02 503.94 719.71   C 490.11 721.97 475.11 725.28 461.33 730.07   C 446.82 735.11 431.91 741.24 420.67 751.88   C 416.94 755.41 413.43 759.22 409.16 762.13   Q 398.03 769.74 390.33 776.59   Q 384.63 781.66 382.15 785.17   Q 373.11 797.95 366.36 807.06   C 360.29 815.26 357.64 822.94 354.00 833.65   C 353.00 836.61 351.42 839.54 349.99 842.20   C 347.41 846.99 345.83 852.69 343.92 857.96   C 341.79 863.89 338.83 868.77 336.76 875.01   Q 332.37 888.19 329.34 903.29   Q 326.44 917.75 326.10 919.99   C 324.02 933.88 323.49 948.41 326.19 962.38   C 326.69 964.96 328.47 968.66 328.99 971.20   C 329.92 975.74 330.33 981.62 331.70 987.51   Q 332.99 993.04 334.59 1002.60   Q 334.75 1003.57 338.61 1016.95   Q 340.29 1022.77 343.91 1030.86   Q 348.32 1040.73 351.40 1051.65   C 353.09 1057.64 356.14 1062.89 358.66 1068.81   C 360.80 1073.81 364.49 1078.57 366.70 1083.83   Q 368.21 1087.43 369.24 1090.61   Q 373.82 1104.84 362.87 1113.81   Q 356.46 1119.06 353.99 1120.26   Q 338.65 1127.72 322.18 1131.89   C 309.71 1135.05 297.42 1139.80 284.41 1141.96   C 277.01 1143.20 271.09 1143.86 266.19 1145.98   C 257.27 1149.85 250.05 1152.45 240.39 1152.38   Q 232.35 1152.33 224.36 1152.03   Q 220.76 1151.89 208.97 1153.52   Q 196.37 1155.27 189.58 1164.23   L 186.80 1150.55   A 1.77 1.77 0.0 0 1 187.99 1148.52   Q 189.58 1148.01 191.14 1147.86   Q 229.74 1144.16 262.45 1137.39   Q 276.99 1134.39 286.18 1131.80   Q 308.39 1125.55 309.63 1125.15   Q 312.46 1124.22 332.55 1116.72   C 342.20 1113.11 350.98 1108.36 359.66 1104.42   C 363.34 1102.75 362.24 1099.45 360.27 1096.55   C 357.80 1092.91 356.59 1089.36 354.39 1085.02   Q 339.53 1055.63 330.42 1024.30   Q 327.48 1010.17 324.51 996.19   Q 321.84 983.67 321.17 976.72   Q 320.22 966.87 319.45 957.00   Q 318.87 949.56 319.35 936.68   Q 319.78 925.50 320.52 916.37   Q 321.76 901.14 326.20 881.19   Q 333.46 848.52 346.93 820.48   Q 356.67 802.18 363.49 792.73   Q 384.15 764.09 412.41 743.42   C 430.49 730.18 452.15 719.85 474.03 714.94   C 507.31 707.47 545.18 709.75 575.52 725.97   C 604.61 741.52 620.90 771.76 629.18 802.75   Q 629.65 804.53 630.67 806.94   Q 631.58 809.09 632.32 811.08   Z"/>
<path xmlns="http://www.w3.org/2000/svg" fill="#0c436d" d="M 193.97 1189.48   L 189.58 1164.23   Q 196.37 1155.27 208.97 1153.52   Q 220.76 1151.89 224.36 1152.03   Q 232.35 1152.33 240.39 1152.38   C 250.05 1152.45 257.27 1149.85 266.19 1145.98   C 271.09 1143.86 277.01 1143.20 284.41 1141.96   C 297.42 1139.80 309.71 1135.05 322.18 1131.89   Q 338.65 1127.72 353.99 1120.26   Q 356.46 1119.06 362.87 1113.81   Q 373.82 1104.84 369.24 1090.61   Q 368.21 1087.43 366.70 1083.83   C 364.49 1078.57 360.80 1073.81 358.66 1068.81   C 356.14 1062.89 353.09 1057.64 351.40 1051.65   Q 348.32 1040.73 343.91 1030.86   Q 340.29 1022.77 338.61 1016.95   Q 334.75 1003.57 334.59 1002.60   Q 332.99 993.04 331.70 987.51   C 330.33 981.62 329.92 975.74 328.99 971.20   C 328.47 968.66 326.69 964.96 326.19 962.38   C 323.49 948.41 324.02 933.88 326.10 919.99   Q 326.44 917.75 329.34 903.29   Q 332.37 888.19 336.76 875.01   C 338.83 868.77 341.79 863.89 343.92 857.96   C 345.83 852.69 347.41 846.99 349.99 842.20   C 351.42 839.54 353.00 836.61 354.00 833.65   C 357.64 822.94 360.29 815.26 366.36 807.06   Q 373.11 797.95 382.15 785.17   Q 384.63 781.66 390.33 776.59   Q 398.03 769.74 409.16 762.13   C 413.43 759.22 416.94 755.41 420.67 751.88   C 431.91 741.24 446.82 735.11 461.33 730.07   C 475.11 725.28 490.11 721.97 503.94 719.71   C 514.25 718.02 524.33 721.28 534.53 722.82   Q 541.53 723.87 544.86 725.31   C 549.55 727.34 554.18 729.78 557.92 731.19   Q 569.34 735.50 584.29 743.75   C 593.86 749.02 597.22 755.25 603.60 765.57   C 606.69 770.57 611.02 776.83 613.35 782.68   C 616.92 791.64 620.29 807.95 615.15 817.03   Q 608.05 829.57 602.39 836.42   Q 601.40 837.61 593.53 845.79   C 589.24 850.25 586.48 855.63 582.63 863.90   C 581.22 866.94 578.35 871.09 575.61 874.29   Q 572.11 878.37 566.29 885.20   Q 563.34 888.65 559.05 890.31   A 0.59 0.58 61.8 0 1 558.34 890.09   C 555.50 885.80 554.87 881.94 555.00 876.25   C 555.17 868.34 553.59 860.04 554.97 851.52   C 556.59 841.45 558.78 833.03 553.74 823.84   C 547.77 812.97 539.98 806.98 529.52 799.23   C 523.41 794.71 515.80 792.41 509.00 791.13   C 501.40 789.70 491.43 790.84 484.76 794.91   Q 483.05 795.96 475.22 802.13   Q 470.07 806.20 465.95 809.71   Q 460.02 814.75 456.53 822.51   C 452.80 830.79 449.74 838.68 445.28 845.89   C 442.80 849.92 440.51 853.23 438.87 857.18   Q 436.25 863.52 435.12 870.75   Q 432.19 889.52 432.10 890.39   C 431.29 898.17 431.45 905.83 431.42 921.48   Q 431.39 933.48 432.97 945.67   Q 435.56 965.65 439.62 984.57   Q 440.55 988.94 444.16 997.92   C 446.82 1004.57 450.37 1009.87 452.29 1016.47   Q 454.39 1023.74 453.85 1032.05   Q 453.50 1037.39 451.09 1042.37   Q 444.69 1055.53 438.31 1062.84   Q 423.39 1079.92 417.97 1086.46   Q 413.99 1091.28 409.83 1099.00   C 406.33 1105.53 402.03 1110.27 397.98 1116.48   Q 394.13 1122.36 390.85 1125.90   C 388.37 1128.57 383.77 1133.59 380.71 1137.96   Q 375.52 1145.37 370.60 1152.67   C 364.82 1161.23 360.11 1166.88 353.50 1175.48   C 350.46 1179.44 344.41 1181.74 340.73 1183.72   C 334.45 1187.11 326.77 1192.48 322.10 1194.18   Q 316.01 1196.41 308.22 1197.76   C 303.99 1198.50 298.99 1200.53 293.23 1203.38   Q 285.15 1207.39 274.97 1209.65   Q 269.95 1210.76 252.35 1214.06   Q 249.76 1214.55 242.66 1214.18   C 234.51 1213.77 226.95 1214.01 220.49 1213.52   C 208.62 1212.62 204.18 1204.72 199.75 1195.08   Q 198.86 1193.16 193.97 1189.48   Z"/>
<path xmlns="http://www.w3.org/2000/svg" fill="#dbd3c7" fill-opacity="0.996" d="M 330.42 1024.30   Q 327.31 1013.95 324.39 1003.82   Q 322.00 995.50 319.18 977.44   Q 315.36 952.86 316.48 930.49   Q 316.80 923.97 317.94 909.46   Q 318.58 901.36 320.03 893.60   Q 321.96 883.22 323.52 877.98   Q 325.85 870.13 326.40 867.41   Q 326.70 867.23 326.68 866.50   Q 326.93 866.13 326.90 865.55   L 328.28 861.21   Q 328.41 860.90 328.43 860.54   Q 336.46 840.07 346.93 820.48   Q 333.46 848.52 326.20 881.19   Q 321.76 901.14 320.52 916.37   Q 319.78 925.50 319.35 936.68   Q 318.87 949.56 319.45 957.00   Q 320.22 966.87 321.17 976.72   Q 321.84 983.67 324.51 996.19   Q 327.48 1010.17 330.42 1024.30   Z"/>
<path xmlns="http://www.w3.org/2000/svg" fill="#af6445" d="M 328.43 860.54   Q 328.41 860.90 328.28 861.21   L 328.43 860.54   Z"/>
<path xmlns="http://www.w3.org/2000/svg" fill="#af6445" d="M 326.90 865.55   Q 326.93 866.13 326.68 866.50   Q 326.71 865.98 326.90 865.55   Z"/>
<path xmlns="http://www.w3.org/2000/svg" fill="#af6445" d="M 326.68 866.50   Q 326.70 867.23 326.40 867.41   L 326.68 866.50   Z"/>
<path xmlns="http://www.w3.org/2000/svg" fill="#dbd3c7" fill-opacity="0.996" d="M 349.78 1197.28   Q 349.32 1198.70 347.57 1200.09   Q 346.24 1198.36 344.28 1199.22   Q 344.62 1198.49 345.84 1198.57   A 1.59 1.59 0.0 0 0 346.52 1198.48   L 349.78 1197.28   Z"/>
</g></g></g></g></svg>